# xmcd
#
# Track frame offsets:
#  150
#  9760
#  25730
#  37492
#  48100
#  58731
#  69625
#  82484
#  93862
#  107073
#
# Disc length: 1587 seconds
#
# Revision: 0
# Processed by: cddbd v1.5.1PL2 Copyright (c) Steve Scherf et al.
# Submitted via: Collectorz.com_Music_Collector 6.9
#
DISCID=8006310a
DTITLE=Crystal Gayle - Somebody Loves You
DYEAR=1975
DGENRE=Country
TTITLE0=01 - Before I'm Fool Enough
TTITLE1=02 - I'll Get Over You
TTITLE2=03 - Sweet Baby On My Mind
TTITLE3=04 - I Want To Lose Me In You
TTITLE4=05 - High Time
TTITLE5=06 - Somebody Loves You
TTITLE6=07 - What You've Done For Me
TTITLE7=08 - Coming Closer
TTITLE8=09 - Dreaming My Dreams Of You
TTITLE9=10 - What I've Been Needin'
EXTD=
EXTT0=
EXTT1=
EXTT2=
EXTT3=
EXTT4=
EXTT5=
EXTT6=
EXTT7=
EXTT8=
EXTT9=
PLAYORDER=
